<svg xmlns="http://www.w3.org/2000/svg" viewBox="0 0 1100 357">
  <defs>
    <style>
      .wordmark { fill: #232221; }
      @media (prefers-color-scheme: dark) { .wordmark { fill: #cbd5e1; } }
    </style>
  </defs>

  <!-- Hexagon (green shell, N removed) -->
  <g transform="translate(-149 -203)">
    <path fill="#009639" d="M452.69,284.92L317.13,206.65a21.46,21.46,0,0,0-21.4,0L160.17,284.92
      a21.46,21.46,0,0,0-10.69,18.53V460a21.45,21.45,0,0,0,10.7,18.53l135.56,78.26
      a21.46,21.46,0,0,0,21.4,0l135.56-78.26A21.45,21.45,0,0,0,463.39,460V303.45
      A21.45,21.45,0,0,0,452.69,284.92Z"/>
  </g>

  <!-- FU centered in hexagon (center at 157, 178) -->
  <text x="157" y="178"
        font-family="'Open Sans',Arial,Helvetica,sans-serif"
        font-size="108" font-weight="700"
        fill="white"
        text-anchor="middle" dominant-baseline="central">FU</text>

  <!-- FreeUnit wordmark -->
  <text class="wordmark"
        x="340" y="203"
        font-family="'Open Sans',Arial,Helvetica,sans-serif"
        font-size="140" font-weight="700">FreeUnit</text>

  <!-- Subtitle -->
  <text x="344" y="284"
        font-family="'Open Sans',Arial,Helvetica,sans-serif"
        font-size="54"
        fill="#999999">Community LTS fork</text>
</svg>
